<mxfile host="app.diagrams.net" agent="Mozilla/5.0 (X11; Linux x86_64; rv:135.0) Gecko/20100101 Firefox/135.0" version="26.0.11">
  <diagram name="Page-1" id="6a2z1_9bkPea89ersHlT">
    <mxGraphModel dx="1050" dy="703" grid="1" gridSize="10" guides="1" tooltips="1" connect="1" arrows="1" fold="1" page="1" pageScale="1" pageWidth="827" pageHeight="1169" math="0" shadow="0">
      <root>
        <mxCell id="0" />
        <mxCell id="1" parent="0" />
        <mxCell id="hUccmGH_z0nLGmeYy9fy-1" value="&lt;div&gt;Student&lt;/div&gt;" style="shape=umlActor;verticalLabelPosition=bottom;verticalAlign=top;html=1;outlineConnect=0;" parent="1" vertex="1">
          <mxGeometry x="80" y="250" width="30" height="60" as="geometry" />
        </mxCell>
        <mxCell id="hUccmGH_z0nLGmeYy9fy-7" value="" style="swimlane;startSize=0;" parent="1" vertex="1">
          <mxGeometry x="130" y="140" width="180" height="320" as="geometry">
            <mxRectangle x="130" y="140" width="50" height="40" as="alternateBounds" />
          </mxGeometry>
        </mxCell>
        <mxCell id="hUccmGH_z0nLGmeYy9fy-6" value="Acc Login" style="ellipse;whiteSpace=wrap;html=1;" parent="hUccmGH_z0nLGmeYy9fy-7" vertex="1">
          <mxGeometry x="30" y="10" width="120" height="50" as="geometry" />
        </mxCell>
        <mxCell id="hUccmGH_z0nLGmeYy9fy-9" value="Course Registration" style="ellipse;whiteSpace=wrap;html=1;" parent="hUccmGH_z0nLGmeYy9fy-7" vertex="1">
          <mxGeometry x="30" y="70" width="120" height="50" as="geometry" />
        </mxCell>
        <mxCell id="hUccmGH_z0nLGmeYy9fy-12" value="Access Admit Card" style="ellipse;whiteSpace=wrap;html=1;" parent="hUccmGH_z0nLGmeYy9fy-7" vertex="1">
          <mxGeometry x="25" y="130" width="130" height="50" as="geometry" />
        </mxCell>
        <mxCell id="hUccmGH_z0nLGmeYy9fy-11" value="View Schedule" style="ellipse;whiteSpace=wrap;html=1;" parent="hUccmGH_z0nLGmeYy9fy-7" vertex="1">
          <mxGeometry x="30" y="190" width="120" height="50" as="geometry" />
        </mxCell>
        <mxCell id="hUccmGH_z0nLGmeYy9fy-10" value="&lt;div&gt;Update Personal&lt;/div&gt;&lt;div&gt;Information&lt;/div&gt;" style="ellipse;whiteSpace=wrap;html=1;" parent="hUccmGH_z0nLGmeYy9fy-7" vertex="1">
          <mxGeometry x="30" y="250" width="120" height="50" as="geometry" />
        </mxCell>
        <mxCell id="hUccmGH_z0nLGmeYy9fy-13" style="edgeStyle=orthogonalEdgeStyle;rounded=0;orthogonalLoop=1;jettySize=auto;html=1;exitX=0.5;exitY=1;exitDx=0;exitDy=0;" parent="1" source="hUccmGH_z0nLGmeYy9fy-7" target="hUccmGH_z0nLGmeYy9fy-7" edge="1">
          <mxGeometry relative="1" as="geometry" />
        </mxCell>
        <mxCell id="hUccmGH_z0nLGmeYy9fy-14" value="Admin" style="shape=umlActor;verticalLabelPosition=bottom;verticalAlign=top;html=1;outlineConnect=0;" parent="1" vertex="1">
          <mxGeometry x="760" y="250" width="30" height="60" as="geometry" />
        </mxCell>
        <mxCell id="hUccmGH_z0nLGmeYy9fy-15" value="" style="swimlane;startSize=0;" parent="1" vertex="1">
          <mxGeometry x="540" y="140" width="180" height="320" as="geometry">
            <mxRectangle x="130" y="140" width="50" height="40" as="alternateBounds" />
          </mxGeometry>
        </mxCell>
        <mxCell id="hUccmGH_z0nLGmeYy9fy-16" value="Acc Login" style="ellipse;whiteSpace=wrap;html=1;" parent="hUccmGH_z0nLGmeYy9fy-15" vertex="1">
          <mxGeometry x="30" y="10" width="120" height="50" as="geometry" />
        </mxCell>
        <mxCell id="hUccmGH_z0nLGmeYy9fy-17" value="&lt;div&gt;Upload Student&lt;/div&gt;&lt;div&gt;Details&lt;/div&gt;" style="ellipse;whiteSpace=wrap;html=1;" parent="hUccmGH_z0nLGmeYy9fy-15" vertex="1">
          <mxGeometry x="30" y="70" width="120" height="50" as="geometry" />
        </mxCell>
        <mxCell id="hUccmGH_z0nLGmeYy9fy-18" value="&lt;div&gt;Update Exam&lt;/div&gt;&lt;div&gt;Information&lt;/div&gt;" style="ellipse;whiteSpace=wrap;html=1;" parent="hUccmGH_z0nLGmeYy9fy-15" vertex="1">
          <mxGeometry x="25" y="130" width="130" height="50" as="geometry" />
        </mxCell>
        <mxCell id="hUccmGH_z0nLGmeYy9fy-19" value="Upload Notifications" style="ellipse;whiteSpace=wrap;html=1;" parent="hUccmGH_z0nLGmeYy9fy-15" vertex="1">
          <mxGeometry x="30" y="190" width="120" height="50" as="geometry" />
        </mxCell>
        <mxCell id="hUccmGH_z0nLGmeYy9fy-20" value="&lt;div&gt;Update&lt;/div&gt;&lt;div&gt;Attendance&lt;/div&gt;" style="ellipse;whiteSpace=wrap;html=1;" parent="hUccmGH_z0nLGmeYy9fy-15" vertex="1">
          <mxGeometry x="30" y="250" width="120" height="50" as="geometry" />
        </mxCell>
      </root>
    </mxGraphModel>
  </diagram>
</mxfile>
